<?xml version="1.0" encoding="UTF-8"?>
<svg id="Final_LOGO" data-name="Final LOGO" xmlns="http://www.w3.org/2000/svg" viewBox="0 0 1000 1000">
  <defs>
    <style>
      .cls-1 {
        fill: #121212;
      }

      .cls-1, .cls-2 {
        stroke-width: 0px;
      }

      .cls-2 {
        fill: #35fd5c;
      }
    </style>
  </defs>
  <rect class="cls-2" x="0" y="0" width="1000" height="1000"/>
  <g>
    <path class="cls-1" d="m549.74,217.86c-155.79,0-304.36,126.3-331.83,282.09-27.47,155.79,76.56,282.09,232.35,282.09,98.19,0,193.5-50.18,257.44-126.29v126.4h78.4v-317.29c7.27-139.23-92.46-247-236.37-247Zm153.95,282.09c-19.84,112.49-127.11,203.68-239.6,203.68s-187.6-91.19-167.77-203.68c19.84-112.49,127.11-203.68,239.6-203.68s187.6,91.19,167.77,203.68Z"/>
    <path class="cls-1" d="m497.42,559.56c-13.87,6.7-27.4,7.01-42.6.95-21.07-8.4-44.43-58.53-53.19-91.49l-38.86,10.26-38.88,10.2c.3,1.15,7.55,28.51,21.86,58.64,21.56,45.4,48.24,74.69,79.31,87.07,16.76,6.68,33.75,10.01,50.56,10.01,19.36,0,38.49-4.42,56.77-13.26,66.51-32.14,106.7-116,118.65-155.86l-77-23.09c-7.64,25.48-37.55,87.69-76.63,106.57Z"/>
  </g>
</svg>